<?xml version="1.0" encoding="UTF-8"?>
<svg xmlns="http://www.w3.org/2000/svg" width="1280" height="720" viewBox="0 0 1280 720">
  <defs>
    <linearGradient id="bg" x1="0" y1="0" x2="1280" y2="720" gradientUnits="userSpaceOnUse">
      <stop stop-color="#6366f1"/><stop offset="1" stop-color="#9333ea"/>
    </linearGradient>
    <radialGradient id="v" cx="50%" cy="45%" r="55%"><stop stop-color="#fff" stop-opacity="0.25"/><stop offset="1" stop-color="#fff" stop-opacity="0"/></radialGradient>
    <radialGradient id="v2" cx="85%" cy="80%" r="45%"><stop stop-color="#fff" stop-opacity="0.15"/><stop offset="1" stop-color="#fff" stop-opacity="0"/></radialGradient>
    <filter id="soft" x="-30%" y="-30%" width="160%" height="160%">
      <feDropShadow dx="0" dy="12" stdDeviation="18" flood-color="#000" flood-opacity="0.25"/>
    </filter>
    <pattern id="g" width="44" height="44" patternUnits="userSpaceOnUse"><path d="M44 0H0V44" fill="none" stroke="#fff" stroke-opacity="0.07"/></pattern>
  </defs>
  <rect width="1280" height="720" fill="url(#bg)"/>
  <rect width="1280" height="720" fill="url(#g)"/>
  <rect width="1280" height="720" fill="url(#v)"/>
  <rect width="1280" height="720" fill="url(#v2)"/>
  <g transform="translate(196 360) rotate(-11)" opacity="0.2">
      <rect width="361" height="211" rx="22" fill="#fff" fill-opacity="0.14" stroke="#fff" stroke-opacity="0.3"/>
      <rect x="16" y="20" width="198" height="11" rx="5" fill="#fff" fill-opacity="0.35"/>
      <rect x="16" y="42" width="137" height="9" rx="4" fill="#fff" fill-opacity="0.2"/>
    </g>
<g transform="translate(263 486) rotate(4)" opacity="0.2">
      <rect width="182" height="234" rx="22" fill="#fff" fill-opacity="0.14" stroke="#fff" stroke-opacity="0.3"/>
      <rect x="16" y="20" width="100" height="11" rx="5" fill="#fff" fill-opacity="0.35"/>
      <rect x="16" y="42" width="69" height="9" rx="4" fill="#fff" fill-opacity="0.2"/>
    </g>
<g transform="translate(835 357) rotate(9)" opacity="0.2">
      <rect width="271" height="144" rx="22" fill="#fff" fill-opacity="0.14" stroke="#fff" stroke-opacity="0.3"/>
      <rect x="16" y="20" width="149" height="11" rx="5" fill="#fff" fill-opacity="0.35"/>
      <rect x="16" y="42" width="102" height="9" rx="4" fill="#fff" fill-opacity="0.2"/>
    </g>
<g transform="translate(190 341) rotate(-8)" opacity="0.2">
      <rect width="234" height="147" rx="22" fill="#fff" fill-opacity="0.14" stroke="#fff" stroke-opacity="0.3"/>
      <rect x="16" y="20" width="128" height="11" rx="5" fill="#fff" fill-opacity="0.35"/>
      <rect x="16" y="42" width="88" height="9" rx="4" fill="#fff" fill-opacity="0.2"/>
    </g>
<g transform="translate(896 382) rotate(-2)" opacity="0.2">
      <rect width="264" height="122" rx="22" fill="#fff" fill-opacity="0.14" stroke="#fff" stroke-opacity="0.3"/>
      <rect x="16" y="20" width="145" height="11" rx="5" fill="#fff" fill-opacity="0.35"/>
      <rect x="16" y="42" width="100" height="9" rx="4" fill="#fff" fill-opacity="0.2"/>
    </g>
<rect x="470" y="415" width="63" height="26" rx="13" fill="#fff" fill-opacity="0.16999999999999998" stroke="#fff" stroke-opacity="0.22"/>
<rect x="177" y="539" width="64" height="26" rx="13" fill="#fff" fill-opacity="0.14" stroke="#fff" stroke-opacity="0.22"/>
<rect x="649" y="340" width="68" height="26" rx="13" fill="#fff" fill-opacity="0.11" stroke="#fff" stroke-opacity="0.22"/>
<rect x="363" y="289" width="74" height="26" rx="13" fill="#fff" fill-opacity="0.13" stroke="#fff" stroke-opacity="0.22"/>
<rect x="237" y="312" width="80" height="26" rx="13" fill="#fff" fill-opacity="0.08" stroke="#fff" stroke-opacity="0.22"/>
<rect x="254" y="62" width="87" height="26" rx="13" fill="#fff" fill-opacity="0.14" stroke="#fff" stroke-opacity="0.22"/>
<rect x="881" y="295" width="49" height="26" rx="13" fill="#fff" fill-opacity="0.15000000000000002" stroke="#fff" stroke-opacity="0.22"/>
<rect x="673" y="460" width="123" height="26" rx="13" fill="#fff" fill-opacity="0.09" stroke="#fff" stroke-opacity="0.22"/>
<rect x="48" y="591" width="57" height="26" rx="13" fill="#fff" fill-opacity="0.1" stroke="#fff" stroke-opacity="0.22"/>
<rect x="354" y="85" width="44" height="26" rx="13" fill="#fff" fill-opacity="0.09" stroke="#fff" stroke-opacity="0.22"/>
  <!-- Large centered icon badge -->
  <g filter="url(#soft)">
    <rect x="500" y="200" width="280" height="280" rx="56" fill="#0f172a" fill-opacity="0.28" stroke="#fff" stroke-opacity="0.35" stroke-width="2"/>
    <rect x="520" y="220" width="240" height="240" rx="48" fill="#fff" fill-opacity="0.16"/>
    <g transform="translate(640 340)" text-anchor="middle" fill="none" stroke="#fff" stroke-width="1.75" stroke-linecap="round" stroke-linejoin="round" transform-origin="center">
      <g transform="translate(-96 -96) scale(8)">
        <rect x="3" y="11" width="18" height="11" rx="2"/><path d="M7 11V7a5 5 0 0 1 10 0v4"/>
      </g>
    </g>
  </g>
  <!-- Tag chip -->
  <rect x="538" y="520" width="204" height="52" rx="26" fill="#0f172a" fill-opacity="0.32" stroke="#fff" stroke-opacity="0.3"/>
  <text x="640" y="554" text-anchor="middle" font-family="Inter,Segoe UI,Arial,sans-serif" font-size="22" font-weight="700" fill="#fff">Writing</text>
  <text x="1220" y="670" text-anchor="end" font-family="Inter,Segoe UI,Arial,sans-serif" font-size="28" font-weight="800" fill="#fff" fill-opacity="0.85">Textly</text>
</svg>