<?xml version="1.0" encoding="UTF-8"?>
<svg xmlns="http://www.w3.org/2000/svg" width="1280" height="720" viewBox="0 0 1280 720">
  <defs>
    <linearGradient id="bg" x1="0" y1="0" x2="1280" y2="720" gradientUnits="userSpaceOnUse">
      <stop stop-color="#10b981"/><stop offset="1" stop-color="#0d9488"/>
    </linearGradient>
    <radialGradient id="v" cx="50%" cy="45%" r="55%"><stop stop-color="#fff" stop-opacity="0.25"/><stop offset="1" stop-color="#fff" stop-opacity="0"/></radialGradient>
    <radialGradient id="v2" cx="85%" cy="80%" r="45%"><stop stop-color="#fff" stop-opacity="0.15"/><stop offset="1" stop-color="#fff" stop-opacity="0"/></radialGradient>
    <filter id="soft" x="-30%" y="-30%" width="160%" height="160%">
      <feDropShadow dx="0" dy="12" stdDeviation="18" flood-color="#000" flood-opacity="0.25"/>
    </filter>
    <pattern id="g" width="44" height="44" patternUnits="userSpaceOnUse"><path d="M44 0H0V44" fill="none" stroke="#fff" stroke-opacity="0.07"/></pattern>
  </defs>
  <rect width="1280" height="720" fill="url(#bg)"/>
  <rect width="1280" height="720" fill="url(#g)"/>
  <rect width="1280" height="720" fill="url(#v)"/>
  <rect width="1280" height="720" fill="url(#v2)"/>
  <g transform="translate(740 488) rotate(16)" opacity="0.2">
      <rect width="177" height="110" rx="22" fill="#fff" fill-opacity="0.14" stroke="#fff" stroke-opacity="0.3"/>
      <rect x="16" y="20" width="97" height="11" rx="5" fill="#fff" fill-opacity="0.35"/>
      <rect x="16" y="42" width="67" height="9" rx="4" fill="#fff" fill-opacity="0.2"/>
    </g>
<g transform="translate(535 310) rotate(-16)" opacity="0.2">
      <rect width="220" height="183" rx="22" fill="#fff" fill-opacity="0.14" stroke="#fff" stroke-opacity="0.3"/>
      <rect x="16" y="20" width="121" height="11" rx="5" fill="#fff" fill-opacity="0.35"/>
      <rect x="16" y="42" width="83" height="9" rx="4" fill="#fff" fill-opacity="0.2"/>
    </g>
<g transform="translate(971 509) rotate(16)" opacity="0.2">
      <rect width="290" height="193" rx="22" fill="#fff" fill-opacity="0.14" stroke="#fff" stroke-opacity="0.3"/>
      <rect x="16" y="20" width="159" height="11" rx="5" fill="#fff" fill-opacity="0.35"/>
      <rect x="16" y="42" width="110" height="9" rx="4" fill="#fff" fill-opacity="0.2"/>
    </g>
<g transform="translate(258 177) rotate(-4)" opacity="0.2">
      <rect width="373" height="97" rx="22" fill="#fff" fill-opacity="0.14" stroke="#fff" stroke-opacity="0.3"/>
      <rect x="16" y="20" width="205" height="11" rx="5" fill="#fff" fill-opacity="0.35"/>
      <rect x="16" y="42" width="141" height="9" rx="4" fill="#fff" fill-opacity="0.2"/>
    </g>
<g transform="translate(440 60) rotate(-17)" opacity="0.2">
      <rect width="203" height="97" rx="22" fill="#fff" fill-opacity="0.14" stroke="#fff" stroke-opacity="0.3"/>
      <rect x="16" y="20" width="111" height="11" rx="5" fill="#fff" fill-opacity="0.35"/>
      <rect x="16" y="42" width="77" height="9" rx="4" fill="#fff" fill-opacity="0.2"/>
    </g>
<rect x="628" y="327" width="97" height="26" rx="13" fill="#fff" fill-opacity="0.15000000000000002" stroke="#fff" stroke-opacity="0.22"/>
<rect x="826" y="495" width="126" height="26" rx="13" fill="#fff" fill-opacity="0.08" stroke="#fff" stroke-opacity="0.22"/>
<rect x="403" y="318" width="99" height="26" rx="13" fill="#fff" fill-opacity="0.13" stroke="#fff" stroke-opacity="0.22"/>
<rect x="240" y="588" width="89" height="26" rx="13" fill="#fff" fill-opacity="0.09" stroke="#fff" stroke-opacity="0.22"/>
<rect x="365" y="151" width="88" height="26" rx="13" fill="#fff" fill-opacity="0.16" stroke="#fff" stroke-opacity="0.22"/>
<rect x="318" y="601" width="46" height="26" rx="13" fill="#fff" fill-opacity="0.08" stroke="#fff" stroke-opacity="0.22"/>
<rect x="913" y="565" width="73" height="26" rx="13" fill="#fff" fill-opacity="0.16999999999999998" stroke="#fff" stroke-opacity="0.22"/>
<rect x="689" y="595" width="90" height="26" rx="13" fill="#fff" fill-opacity="0.15000000000000002" stroke="#fff" stroke-opacity="0.22"/>
<rect x="56" y="349" width="95" height="26" rx="13" fill="#fff" fill-opacity="0.08" stroke="#fff" stroke-opacity="0.22"/>
<rect x="358" y="274" width="108" height="26" rx="13" fill="#fff" fill-opacity="0.08" stroke="#fff" stroke-opacity="0.22"/>
  <!-- Large centered icon badge -->
  <g filter="url(#soft)">
    <rect x="500" y="200" width="280" height="280" rx="56" fill="#0f172a" fill-opacity="0.28" stroke="#fff" stroke-opacity="0.35" stroke-width="2"/>
    <rect x="520" y="220" width="240" height="240" rx="48" fill="#fff" fill-opacity="0.16"/>
    <g transform="translate(640 340)" text-anchor="middle" fill="none" stroke="#fff" stroke-width="1.75" stroke-linecap="round" stroke-linejoin="round" transform-origin="center">
      <g transform="translate(-96 -96) scale(8)">
        <path d="M11 5 6 9H2v6h4l5 4z"/><path d="M15.54 8.46a5 5 0 0 1 0 7.07"/><path d="M19.07 4.93a10 10 0 0 1 0 14.14"/>
      </g>
    </g>
  </g>
  <!-- Tag chip -->
  <rect x="526" y="520" width="228" height="52" rx="26" fill="#0f172a" fill-opacity="0.32" stroke="#fff" stroke-opacity="0.3"/>
  <text x="640" y="554" text-anchor="middle" font-family="Inter,Segoe UI,Arial,sans-serif" font-size="22" font-weight="700" fill="#fff">Developer</text>
  <text x="1220" y="670" text-anchor="end" font-family="Inter,Segoe UI,Arial,sans-serif" font-size="28" font-weight="800" fill="#fff" fill-opacity="0.85">Textly</text>
</svg>