<?xml version="1.0" encoding="UTF-8"?>
<svg xmlns="http://www.w3.org/2000/svg" width="1280" height="720" viewBox="0 0 1280 720">
  <defs>
    <linearGradient id="bg" x1="0" y1="0" x2="1280" y2="720" gradientUnits="userSpaceOnUse">
      <stop stop-color="#d946ef"/><stop offset="1" stop-color="#db2777"/>
    </linearGradient>
    <radialGradient id="v" cx="50%" cy="45%" r="55%"><stop stop-color="#fff" stop-opacity="0.25"/><stop offset="1" stop-color="#fff" stop-opacity="0"/></radialGradient>
    <radialGradient id="v2" cx="85%" cy="80%" r="45%"><stop stop-color="#fff" stop-opacity="0.15"/><stop offset="1" stop-color="#fff" stop-opacity="0"/></radialGradient>
    <filter id="soft" x="-30%" y="-30%" width="160%" height="160%">
      <feDropShadow dx="0" dy="12" stdDeviation="18" flood-color="#000" flood-opacity="0.25"/>
    </filter>
    <pattern id="g" width="44" height="44" patternUnits="userSpaceOnUse"><path d="M44 0H0V44" fill="none" stroke="#fff" stroke-opacity="0.07"/></pattern>
  </defs>
  <rect width="1280" height="720" fill="url(#bg)"/>
  <rect width="1280" height="720" fill="url(#g)"/>
  <rect width="1280" height="720" fill="url(#v)"/>
  <rect width="1280" height="720" fill="url(#v2)"/>
  <g transform="translate(178 460) rotate(11)" opacity="0.2">
      <rect width="294" height="94" rx="22" fill="#fff" fill-opacity="0.14" stroke="#fff" stroke-opacity="0.3"/>
      <rect x="16" y="20" width="161" height="11" rx="5" fill="#fff" fill-opacity="0.35"/>
      <rect x="16" y="42" width="111" height="9" rx="4" fill="#fff" fill-opacity="0.2"/>
    </g>
<g transform="translate(744 56) rotate(15)" opacity="0.2">
      <rect width="408" height="175" rx="22" fill="#fff" fill-opacity="0.14" stroke="#fff" stroke-opacity="0.3"/>
      <rect x="16" y="20" width="224" height="11" rx="5" fill="#fff" fill-opacity="0.35"/>
      <rect x="16" y="42" width="155" height="9" rx="4" fill="#fff" fill-opacity="0.2"/>
    </g>
<g transform="translate(96 382) rotate(-2)" opacity="0.2">
      <rect width="254" height="114" rx="22" fill="#fff" fill-opacity="0.14" stroke="#fff" stroke-opacity="0.3"/>
      <rect x="16" y="20" width="139" height="11" rx="5" fill="#fff" fill-opacity="0.35"/>
      <rect x="16" y="42" width="96" height="9" rx="4" fill="#fff" fill-opacity="0.2"/>
    </g>
<g transform="translate(310 354) rotate(-13)" opacity="0.2">
      <rect width="355" height="132" rx="22" fill="#fff" fill-opacity="0.14" stroke="#fff" stroke-opacity="0.3"/>
      <rect x="16" y="20" width="195" height="11" rx="5" fill="#fff" fill-opacity="0.35"/>
      <rect x="16" y="42" width="134" height="9" rx="4" fill="#fff" fill-opacity="0.2"/>
    </g>
<g transform="translate(466 148) rotate(13)" opacity="0.2">
      <rect width="194" height="115" rx="22" fill="#fff" fill-opacity="0.14" stroke="#fff" stroke-opacity="0.3"/>
      <rect x="16" y="20" width="106" height="11" rx="5" fill="#fff" fill-opacity="0.35"/>
      <rect x="16" y="42" width="73" height="9" rx="4" fill="#fff" fill-opacity="0.2"/>
    </g>
<rect x="1160" y="340" width="62" height="26" rx="13" fill="#fff" fill-opacity="0.1" stroke="#fff" stroke-opacity="0.22"/>
<rect x="1092" y="192" width="64" height="26" rx="13" fill="#fff" fill-opacity="0.16" stroke="#fff" stroke-opacity="0.22"/>
<rect x="536" y="166" width="68" height="26" rx="13" fill="#fff" fill-opacity="0.12" stroke="#fff" stroke-opacity="0.22"/>
<rect x="307" y="512" width="74" height="26" rx="13" fill="#fff" fill-opacity="0.14" stroke="#fff" stroke-opacity="0.22"/>
<rect x="160" y="113" width="80" height="26" rx="13" fill="#fff" fill-opacity="0.08" stroke="#fff" stroke-opacity="0.22"/>
<rect x="216" y="272" width="42" height="26" rx="13" fill="#fff" fill-opacity="0.14" stroke="#fff" stroke-opacity="0.22"/>
<rect x="862" y="400" width="116" height="26" rx="13" fill="#fff" fill-opacity="0.1" stroke="#fff" stroke-opacity="0.22"/>
<rect x="94" y="513" width="67" height="26" rx="13" fill="#fff" fill-opacity="0.12" stroke="#fff" stroke-opacity="0.22"/>
<rect x="328" y="308" width="70" height="26" rx="13" fill="#fff" fill-opacity="0.16" stroke="#fff" stroke-opacity="0.22"/>
<rect x="1064" y="564" width="96" height="26" rx="13" fill="#fff" fill-opacity="0.12" stroke="#fff" stroke-opacity="0.22"/>
  <!-- Large centered icon badge -->
  <g filter="url(#soft)">
    <rect x="500" y="200" width="280" height="280" rx="56" fill="#0f172a" fill-opacity="0.28" stroke="#fff" stroke-opacity="0.35" stroke-width="2"/>
    <rect x="520" y="220" width="240" height="240" rx="48" fill="#fff" fill-opacity="0.16"/>
    <g transform="translate(640 340)" text-anchor="middle" fill="none" stroke="#fff" stroke-width="1.75" stroke-linecap="round" stroke-linejoin="round" transform-origin="center">
      <g transform="translate(-96 -96) scale(8)">
        <rect x="3" y="11" width="18" height="11" rx="2"/><path d="M7 11V7a5 5 0 0 1 10 0v4"/>
      </g>
    </g>
  </g>
  <!-- Tag chip -->
  <rect x="556" y="520" width="168" height="52" rx="26" fill="#0f172a" fill-opacity="0.32" stroke="#fff" stroke-opacity="0.3"/>
  <text x="640" y="554" text-anchor="middle" font-family="Inter,Segoe UI,Arial,sans-serif" font-size="22" font-weight="700" fill="#fff">Tips</text>
  <text x="1220" y="670" text-anchor="end" font-family="Inter,Segoe UI,Arial,sans-serif" font-size="28" font-weight="800" fill="#fff" fill-opacity="0.85">Textly</text>
</svg>