<?xml version="1.0" encoding="UTF-8"?>
<svg xmlns="http://www.w3.org/2000/svg" width="1280" height="720" viewBox="0 0 1280 720">
  <defs>
    <linearGradient id="bg" x1="0" y1="0" x2="1280" y2="720" gradientUnits="userSpaceOnUse">
      <stop stop-color="#0ea5e9"/><stop offset="1" stop-color="#2563eb"/>
    </linearGradient>
    <radialGradient id="v" cx="50%" cy="45%" r="55%"><stop stop-color="#fff" stop-opacity="0.25"/><stop offset="1" stop-color="#fff" stop-opacity="0"/></radialGradient>
    <radialGradient id="v2" cx="85%" cy="80%" r="45%"><stop stop-color="#fff" stop-opacity="0.15"/><stop offset="1" stop-color="#fff" stop-opacity="0"/></radialGradient>
    <filter id="soft" x="-30%" y="-30%" width="160%" height="160%">
      <feDropShadow dx="0" dy="12" stdDeviation="18" flood-color="#000" flood-opacity="0.25"/>
    </filter>
    <pattern id="g" width="44" height="44" patternUnits="userSpaceOnUse"><path d="M44 0H0V44" fill="none" stroke="#fff" stroke-opacity="0.07"/></pattern>
  </defs>
  <rect width="1280" height="720" fill="url(#bg)"/>
  <rect width="1280" height="720" fill="url(#g)"/>
  <rect width="1280" height="720" fill="url(#v)"/>
  <rect width="1280" height="720" fill="url(#v2)"/>
  <g transform="translate(308 46) rotate(-13)" opacity="0.2">
      <rect width="222" height="141" rx="22" fill="#fff" fill-opacity="0.14" stroke="#fff" stroke-opacity="0.3"/>
      <rect x="16" y="20" width="122" height="11" rx="5" fill="#fff" fill-opacity="0.35"/>
      <rect x="16" y="42" width="84" height="9" rx="4" fill="#fff" fill-opacity="0.2"/>
    </g>
<g transform="translate(809 329) rotate(3)" opacity="0.2">
      <rect width="242" height="124" rx="22" fill="#fff" fill-opacity="0.14" stroke="#fff" stroke-opacity="0.3"/>
      <rect x="16" y="20" width="133" height="11" rx="5" fill="#fff" fill-opacity="0.35"/>
      <rect x="16" y="42" width="91" height="9" rx="4" fill="#fff" fill-opacity="0.2"/>
    </g>
<g transform="translate(128 39) rotate(9)" opacity="0.2">
      <rect width="171" height="164" rx="22" fill="#fff" fill-opacity="0.14" stroke="#fff" stroke-opacity="0.3"/>
      <rect x="16" y="20" width="94" height="11" rx="5" fill="#fff" fill-opacity="0.35"/>
      <rect x="16" y="42" width="64" height="9" rx="4" fill="#fff" fill-opacity="0.2"/>
    </g>
<g transform="translate(816 182) rotate(9)" opacity="0.2">
      <rect width="314" height="232" rx="22" fill="#fff" fill-opacity="0.14" stroke="#fff" stroke-opacity="0.3"/>
      <rect x="16" y="20" width="172" height="11" rx="5" fill="#fff" fill-opacity="0.35"/>
      <rect x="16" y="42" width="119" height="9" rx="4" fill="#fff" fill-opacity="0.2"/>
    </g>
<g transform="translate(719 302) rotate(7)" opacity="0.2">
      <rect width="174" height="90" rx="22" fill="#fff" fill-opacity="0.14" stroke="#fff" stroke-opacity="0.3"/>
      <rect x="16" y="20" width="95" height="11" rx="5" fill="#fff" fill-opacity="0.35"/>
      <rect x="16" y="42" width="66" height="9" rx="4" fill="#fff" fill-opacity="0.2"/>
    </g>
<rect x="991" y="237" width="85" height="26" rx="13" fill="#fff" fill-opacity="0.1" stroke="#fff" stroke-opacity="0.22"/>
<rect x="437" y="140" width="120" height="26" rx="13" fill="#fff" fill-opacity="0.16" stroke="#fff" stroke-opacity="0.22"/>
<rect x="209" y="140" width="51" height="26" rx="13" fill="#fff" fill-opacity="0.16999999999999998" stroke="#fff" stroke-opacity="0.22"/>
<rect x="143" y="189" width="65" height="26" rx="13" fill="#fff" fill-opacity="0.16" stroke="#fff" stroke-opacity="0.22"/>
<rect x="860" y="572" width="121" height="26" rx="13" fill="#fff" fill-opacity="0.14" stroke="#fff" stroke-opacity="0.22"/>
<rect x="566" y="192" width="107" height="26" rx="13" fill="#fff" fill-opacity="0.16999999999999998" stroke="#fff" stroke-opacity="0.22"/>
<rect x="467" y="50" width="59" height="26" rx="13" fill="#fff" fill-opacity="0.16999999999999998" stroke="#fff" stroke-opacity="0.22"/>
<rect x="466" y="338" width="83" height="26" rx="13" fill="#fff" fill-opacity="0.1" stroke="#fff" stroke-opacity="0.22"/>
<rect x="514" y="220" width="110" height="26" rx="13" fill="#fff" fill-opacity="0.1" stroke="#fff" stroke-opacity="0.22"/>
<rect x="1157" y="210" width="116" height="26" rx="13" fill="#fff" fill-opacity="0.09" stroke="#fff" stroke-opacity="0.22"/>
  <!-- Large centered icon badge -->
  <g filter="url(#soft)">
    <rect x="500" y="200" width="280" height="280" rx="56" fill="#0f172a" fill-opacity="0.28" stroke="#fff" stroke-opacity="0.35" stroke-width="2"/>
    <rect x="520" y="220" width="240" height="240" rx="48" fill="#fff" fill-opacity="0.16"/>
    <g transform="translate(640 340)" text-anchor="middle" fill="none" stroke="#fff" stroke-width="1.75" stroke-linecap="round" stroke-linejoin="round" transform-origin="center">
      <g transform="translate(-96 -96) scale(8)">
        <path d="M11 5 6 9H2v6h4l5 4z"/><path d="M15.54 8.46a5 5 0 0 1 0 7.07"/><path d="M19.07 4.93a10 10 0 0 1 0 14.14"/>
      </g>
    </g>
  </g>
  <!-- Tag chip -->
  <rect x="502" y="520" width="276" height="52" rx="26" fill="#0f172a" fill-opacity="0.32" stroke="#fff" stroke-opacity="0.3"/>
  <text x="640" y="554" text-anchor="middle" font-family="Inter,Segoe UI,Arial,sans-serif" font-size="22" font-weight="700" fill="#fff">Accessibility</text>
  <text x="1220" y="670" text-anchor="end" font-family="Inter,Segoe UI,Arial,sans-serif" font-size="28" font-weight="800" fill="#fff" fill-opacity="0.85">Textly</text>
</svg>