<?xml version="1.0" encoding="UTF-8"?>
<svg xmlns="http://www.w3.org/2000/svg" width="1280" height="720" viewBox="0 0 1280 720">
  <defs>
    <linearGradient id="bg" x1="0" y1="0" x2="1280" y2="720" gradientUnits="userSpaceOnUse">
      <stop stop-color="#0ea5e9"/><stop offset="1" stop-color="#2563eb"/>
    </linearGradient>
    <radialGradient id="v" cx="50%" cy="45%" r="55%"><stop stop-color="#fff" stop-opacity="0.25"/><stop offset="1" stop-color="#fff" stop-opacity="0"/></radialGradient>
    <radialGradient id="v2" cx="85%" cy="80%" r="45%"><stop stop-color="#fff" stop-opacity="0.15"/><stop offset="1" stop-color="#fff" stop-opacity="0"/></radialGradient>
    <filter id="soft" x="-30%" y="-30%" width="160%" height="160%">
      <feDropShadow dx="0" dy="12" stdDeviation="18" flood-color="#000" flood-opacity="0.25"/>
    </filter>
    <pattern id="g" width="44" height="44" patternUnits="userSpaceOnUse"><path d="M44 0H0V44" fill="none" stroke="#fff" stroke-opacity="0.07"/></pattern>
  </defs>
  <rect width="1280" height="720" fill="url(#bg)"/>
  <rect width="1280" height="720" fill="url(#g)"/>
  <rect width="1280" height="720" fill="url(#v)"/>
  <rect width="1280" height="720" fill="url(#v2)"/>
  <g transform="translate(461 348) rotate(13)" opacity="0.2">
      <rect width="380" height="90" rx="22" fill="#fff" fill-opacity="0.14" stroke="#fff" stroke-opacity="0.3"/>
      <rect x="16" y="20" width="209" height="11" rx="5" fill="#fff" fill-opacity="0.35"/>
      <rect x="16" y="42" width="144" height="9" rx="4" fill="#fff" fill-opacity="0.2"/>
    </g>
<g transform="translate(396 480) rotate(-1)" opacity="0.2">
      <rect width="321" height="98" rx="22" fill="#fff" fill-opacity="0.14" stroke="#fff" stroke-opacity="0.3"/>
      <rect x="16" y="20" width="176" height="11" rx="5" fill="#fff" fill-opacity="0.35"/>
      <rect x="16" y="42" width="121" height="9" rx="4" fill="#fff" fill-opacity="0.2"/>
    </g>
<g transform="translate(412 114) rotate(-10)" opacity="0.2">
      <rect width="340" height="226" rx="22" fill="#fff" fill-opacity="0.14" stroke="#fff" stroke-opacity="0.3"/>
      <rect x="16" y="20" width="187" height="11" rx="5" fill="#fff" fill-opacity="0.35"/>
      <rect x="16" y="42" width="129" height="9" rx="4" fill="#fff" fill-opacity="0.2"/>
    </g>
<g transform="translate(958 220) rotate(0)" opacity="0.2">
      <rect width="398" height="188" rx="22" fill="#fff" fill-opacity="0.14" stroke="#fff" stroke-opacity="0.3"/>
      <rect x="16" y="20" width="218" height="11" rx="5" fill="#fff" fill-opacity="0.35"/>
      <rect x="16" y="42" width="151" height="9" rx="4" fill="#fff" fill-opacity="0.2"/>
    </g>
<g transform="translate(790 81) rotate(2)" opacity="0.2">
      <rect width="346" height="143" rx="22" fill="#fff" fill-opacity="0.14" stroke="#fff" stroke-opacity="0.3"/>
      <rect x="16" y="20" width="190" height="11" rx="5" fill="#fff" fill-opacity="0.35"/>
      <rect x="16" y="42" width="131" height="9" rx="4" fill="#fff" fill-opacity="0.2"/>
    </g>
<rect x="333" y="432" width="122" height="26" rx="13" fill="#fff" fill-opacity="0.16" stroke="#fff" stroke-opacity="0.22"/>
<rect x="108" y="238" width="49" height="26" rx="13" fill="#fff" fill-opacity="0.09" stroke="#fff" stroke-opacity="0.22"/>
<rect x="614" y="499" width="61" height="26" rx="13" fill="#fff" fill-opacity="0.14" stroke="#fff" stroke-opacity="0.22"/>
<rect x="346" y="58" width="70" height="26" rx="13" fill="#fff" fill-opacity="0.1" stroke="#fff" stroke-opacity="0.22"/>
<rect x="646" y="196" width="123" height="26" rx="13" fill="#fff" fill-opacity="0.16" stroke="#fff" stroke-opacity="0.22"/>
<rect x="459" y="624" width="108" height="26" rx="13" fill="#fff" fill-opacity="0.08" stroke="#fff" stroke-opacity="0.22"/>
<rect x="414" y="576" width="104" height="26" rx="13" fill="#fff" fill-opacity="0.12" stroke="#fff" stroke-opacity="0.22"/>
<rect x="1010" y="291" width="106" height="26" rx="13" fill="#fff" fill-opacity="0.08" stroke="#fff" stroke-opacity="0.22"/>
<rect x="216" y="507" width="76" height="26" rx="13" fill="#fff" fill-opacity="0.09" stroke="#fff" stroke-opacity="0.22"/>
<rect x="1008" y="43" width="99" height="26" rx="13" fill="#fff" fill-opacity="0.08" stroke="#fff" stroke-opacity="0.22"/>
  <!-- Large centered icon badge -->
  <g filter="url(#soft)">
    <rect x="500" y="200" width="280" height="280" rx="56" fill="#0f172a" fill-opacity="0.28" stroke="#fff" stroke-opacity="0.35" stroke-width="2"/>
    <rect x="520" y="220" width="240" height="240" rx="48" fill="#fff" fill-opacity="0.16"/>
    <g transform="translate(640 340)" text-anchor="middle" fill="none" stroke="#fff" stroke-width="1.75" stroke-linecap="round" stroke-linejoin="round" transform-origin="center">
      <g transform="translate(-96 -96) scale(8)">
        <path d="M12 7v14"/><path d="M3 5v13a2 2 0 0 0 2 2h5V7a2 2 0 0 0-2-2H3z"/><path d="M21 5v13a2 2 0 0 1-2 2h-5V7a2 2 0 0 1 2-2h5z"/>
      </g>
    </g>
  </g>
  <!-- Tag chip -->
  <rect x="502" y="520" width="276" height="52" rx="26" fill="#0f172a" fill-opacity="0.32" stroke="#fff" stroke-opacity="0.3"/>
  <text x="640" y="554" text-anchor="middle" font-family="Inter,Segoe UI,Arial,sans-serif" font-size="22" font-weight="700" fill="#fff">Accessibility</text>
  <text x="1220" y="670" text-anchor="end" font-family="Inter,Segoe UI,Arial,sans-serif" font-size="28" font-weight="800" fill="#fff" fill-opacity="0.85">Textly</text>
</svg>