<?xml version="1.0" encoding="UTF-8"?>
<svg xmlns="http://www.w3.org/2000/svg" width="1280" height="720" viewBox="0 0 1280 720">
  <defs>
    <linearGradient id="bg" x1="0" y1="0" x2="1280" y2="720" gradientUnits="userSpaceOnUse">
      <stop stop-color="#10b981"/><stop offset="1" stop-color="#0d9488"/>
    </linearGradient>
    <radialGradient id="v" cx="50%" cy="45%" r="55%"><stop stop-color="#fff" stop-opacity="0.25"/><stop offset="1" stop-color="#fff" stop-opacity="0"/></radialGradient>
    <radialGradient id="v2" cx="85%" cy="80%" r="45%"><stop stop-color="#fff" stop-opacity="0.15"/><stop offset="1" stop-color="#fff" stop-opacity="0"/></radialGradient>
    <filter id="soft" x="-30%" y="-30%" width="160%" height="160%">
      <feDropShadow dx="0" dy="12" stdDeviation="18" flood-color="#000" flood-opacity="0.25"/>
    </filter>
    <pattern id="g" width="44" height="44" patternUnits="userSpaceOnUse"><path d="M44 0H0V44" fill="none" stroke="#fff" stroke-opacity="0.07"/></pattern>
  </defs>
  <rect width="1280" height="720" fill="url(#bg)"/>
  <rect width="1280" height="720" fill="url(#g)"/>
  <rect width="1280" height="720" fill="url(#v)"/>
  <rect width="1280" height="720" fill="url(#v2)"/>
  <g transform="translate(82 506) rotate(-5)" opacity="0.2">
      <rect width="260" height="110" rx="22" fill="#fff" fill-opacity="0.14" stroke="#fff" stroke-opacity="0.3"/>
      <rect x="16" y="20" width="143" height="11" rx="5" fill="#fff" fill-opacity="0.35"/>
      <rect x="16" y="42" width="98" height="9" rx="4" fill="#fff" fill-opacity="0.2"/>
    </g>
<g transform="translate(206 319) rotate(7)" opacity="0.2">
      <rect width="261" height="183" rx="22" fill="#fff" fill-opacity="0.14" stroke="#fff" stroke-opacity="0.3"/>
      <rect x="16" y="20" width="143" height="11" rx="5" fill="#fff" fill-opacity="0.35"/>
      <rect x="16" y="42" width="99" height="9" rx="4" fill="#fff" fill-opacity="0.2"/>
    </g>
<g transform="translate(807 34) rotate(-6)" opacity="0.2">
      <rect width="310" height="118" rx="22" fill="#fff" fill-opacity="0.14" stroke="#fff" stroke-opacity="0.3"/>
      <rect x="16" y="20" width="170" height="11" rx="5" fill="#fff" fill-opacity="0.35"/>
      <rect x="16" y="42" width="117" height="9" rx="4" fill="#fff" fill-opacity="0.2"/>
    </g>
<g transform="translate(176 420) rotate(-15)" opacity="0.2">
      <rect width="383" height="134" rx="22" fill="#fff" fill-opacity="0.14" stroke="#fff" stroke-opacity="0.3"/>
      <rect x="16" y="20" width="210" height="11" rx="5" fill="#fff" fill-opacity="0.35"/>
      <rect x="16" y="42" width="145" height="9" rx="4" fill="#fff" fill-opacity="0.2"/>
    </g>
<g transform="translate(889 181) rotate(-5)" opacity="0.2">
      <rect width="338" height="191" rx="22" fill="#fff" fill-opacity="0.14" stroke="#fff" stroke-opacity="0.3"/>
      <rect x="16" y="20" width="185" height="11" rx="5" fill="#fff" fill-opacity="0.35"/>
      <rect x="16" y="42" width="128" height="9" rx="4" fill="#fff" fill-opacity="0.2"/>
    </g>
<rect x="488" y="472" width="109" height="26" rx="13" fill="#fff" fill-opacity="0.09" stroke="#fff" stroke-opacity="0.22"/>
<rect x="756" y="258" width="87" height="26" rx="13" fill="#fff" fill-opacity="0.1" stroke="#fff" stroke-opacity="0.22"/>
<rect x="368" y="199" width="80" height="26" rx="13" fill="#fff" fill-opacity="0.14" stroke="#fff" stroke-opacity="0.22"/>
<rect x="223" y="528" width="80" height="26" rx="13" fill="#fff" fill-opacity="0.15000000000000002" stroke="#fff" stroke-opacity="0.22"/>
<rect x="1009" y="121" width="128" height="26" rx="13" fill="#fff" fill-opacity="0.14" stroke="#fff" stroke-opacity="0.22"/>
<rect x="640" y="276" width="66" height="26" rx="13" fill="#fff" fill-opacity="0.16999999999999998" stroke="#fff" stroke-opacity="0.22"/>
<rect x="504" y="92" width="128" height="26" rx="13" fill="#fff" fill-opacity="0.12" stroke="#fff" stroke-opacity="0.22"/>
<rect x="485" y="49" width="73" height="26" rx="13" fill="#fff" fill-opacity="0.08" stroke="#fff" stroke-opacity="0.22"/>
<rect x="1094" y="76" width="49" height="26" rx="13" fill="#fff" fill-opacity="0.09" stroke="#fff" stroke-opacity="0.22"/>
<rect x="307" y="138" width="130" height="26" rx="13" fill="#fff" fill-opacity="0.08" stroke="#fff" stroke-opacity="0.22"/>
  <!-- Large centered icon badge -->
  <g filter="url(#soft)">
    <rect x="500" y="200" width="280" height="280" rx="56" fill="#0f172a" fill-opacity="0.28" stroke="#fff" stroke-opacity="0.35" stroke-width="2"/>
    <rect x="520" y="220" width="240" height="240" rx="48" fill="#fff" fill-opacity="0.16"/>
    <g transform="translate(640 340)" text-anchor="middle" fill="none" stroke="#fff" stroke-width="1.75" stroke-linecap="round" stroke-linejoin="round" transform-origin="center">
      <g transform="translate(-96 -96) scale(8)">
        <path d="M22 3H2l8 9.46V19l4 2v-8.54L22 3z"/>
      </g>
    </g>
  </g>
  <!-- Tag chip -->
  <rect x="526" y="520" width="228" height="52" rx="26" fill="#0f172a" fill-opacity="0.32" stroke="#fff" stroke-opacity="0.3"/>
  <text x="640" y="554" text-anchor="middle" font-family="Inter,Segoe UI,Arial,sans-serif" font-size="22" font-weight="700" fill="#fff">Developer</text>
  <text x="1220" y="670" text-anchor="end" font-family="Inter,Segoe UI,Arial,sans-serif" font-size="28" font-weight="800" fill="#fff" fill-opacity="0.85">Textly</text>
</svg>