<?xml version="1.0" encoding="UTF-8"?>
<svg xmlns="http://www.w3.org/2000/svg" width="1280" height="720" viewBox="0 0 1280 720">
  <defs>
    <linearGradient id="bg" x1="0" y1="0" x2="1280" y2="720" gradientUnits="userSpaceOnUse">
      <stop stop-color="#0ea5e9"/><stop offset="1" stop-color="#2563eb"/>
    </linearGradient>
    <radialGradient id="v" cx="50%" cy="45%" r="55%"><stop stop-color="#fff" stop-opacity="0.25"/><stop offset="1" stop-color="#fff" stop-opacity="0"/></radialGradient>
    <radialGradient id="v2" cx="85%" cy="80%" r="45%"><stop stop-color="#fff" stop-opacity="0.15"/><stop offset="1" stop-color="#fff" stop-opacity="0"/></radialGradient>
    <filter id="soft" x="-30%" y="-30%" width="160%" height="160%">
      <feDropShadow dx="0" dy="12" stdDeviation="18" flood-color="#000" flood-opacity="0.25"/>
    </filter>
    <pattern id="g" width="44" height="44" patternUnits="userSpaceOnUse"><path d="M44 0H0V44" fill="none" stroke="#fff" stroke-opacity="0.07"/></pattern>
  </defs>
  <rect width="1280" height="720" fill="url(#bg)"/>
  <rect width="1280" height="720" fill="url(#g)"/>
  <rect width="1280" height="720" fill="url(#v)"/>
  <rect width="1280" height="720" fill="url(#v2)"/>
  <g transform="translate(611 144) rotate(-2)" opacity="0.2">
      <rect width="234" height="174" rx="22" fill="#fff" fill-opacity="0.14" stroke="#fff" stroke-opacity="0.3"/>
      <rect x="16" y="20" width="128" height="11" rx="5" fill="#fff" fill-opacity="0.35"/>
      <rect x="16" y="42" width="88" height="9" rx="4" fill="#fff" fill-opacity="0.2"/>
    </g>
<g transform="translate(961 378) rotate(-8)" opacity="0.2">
      <rect width="248" height="140" rx="22" fill="#fff" fill-opacity="0.14" stroke="#fff" stroke-opacity="0.3"/>
      <rect x="16" y="20" width="136" height="11" rx="5" fill="#fff" fill-opacity="0.35"/>
      <rect x="16" y="42" width="94" height="9" rx="4" fill="#fff" fill-opacity="0.2"/>
    </g>
<g transform="translate(204 303) rotate(-14)" opacity="0.2">
      <rect width="304" height="97" rx="22" fill="#fff" fill-opacity="0.14" stroke="#fff" stroke-opacity="0.3"/>
      <rect x="16" y="20" width="167" height="11" rx="5" fill="#fff" fill-opacity="0.35"/>
      <rect x="16" y="42" width="115" height="9" rx="4" fill="#fff" fill-opacity="0.2"/>
    </g>
<g transform="translate(854 74) rotate(-2)" opacity="0.2">
      <rect width="380" height="199" rx="22" fill="#fff" fill-opacity="0.14" stroke="#fff" stroke-opacity="0.3"/>
      <rect x="16" y="20" width="209" height="11" rx="5" fill="#fff" fill-opacity="0.35"/>
      <rect x="16" y="42" width="144" height="9" rx="4" fill="#fff" fill-opacity="0.2"/>
    </g>
<g transform="translate(248 248) rotate(-16)" opacity="0.2">
      <rect width="207" height="223" rx="22" fill="#fff" fill-opacity="0.14" stroke="#fff" stroke-opacity="0.3"/>
      <rect x="16" y="20" width="113" height="11" rx="5" fill="#fff" fill-opacity="0.35"/>
      <rect x="16" y="42" width="78" height="9" rx="4" fill="#fff" fill-opacity="0.2"/>
    </g>
<rect x="1077" y="581" width="57" height="26" rx="13" fill="#fff" fill-opacity="0.16999999999999998" stroke="#fff" stroke-opacity="0.22"/>
<rect x="1050" y="312" width="61" height="26" rx="13" fill="#fff" fill-opacity="0.09" stroke="#fff" stroke-opacity="0.22"/>
<rect x="1085" y="226" width="67" height="26" rx="13" fill="#fff" fill-opacity="0.09" stroke="#fff" stroke-opacity="0.22"/>
<rect x="1151" y="542" width="118" height="26" rx="13" fill="#fff" fill-opacity="0.12" stroke="#fff" stroke-opacity="0.22"/>
<rect x="567" y="438" width="57" height="26" rx="13" fill="#fff" fill-opacity="0.12" stroke="#fff" stroke-opacity="0.22"/>
<rect x="989" y="125" width="120" height="26" rx="13" fill="#fff" fill-opacity="0.16" stroke="#fff" stroke-opacity="0.22"/>
<rect x="679" y="637" width="65" height="26" rx="13" fill="#fff" fill-opacity="0.11" stroke="#fff" stroke-opacity="0.22"/>
<rect x="1142" y="631" width="131" height="26" rx="13" fill="#fff" fill-opacity="0.12" stroke="#fff" stroke-opacity="0.22"/>
<rect x="852" y="367" width="87" height="26" rx="13" fill="#fff" fill-opacity="0.16" stroke="#fff" stroke-opacity="0.22"/>
<rect x="186" y="593" width="59" height="26" rx="13" fill="#fff" fill-opacity="0.12" stroke="#fff" stroke-opacity="0.22"/>
  <!-- Large centered icon badge -->
  <g filter="url(#soft)">
    <rect x="500" y="200" width="280" height="280" rx="56" fill="#0f172a" fill-opacity="0.28" stroke="#fff" stroke-opacity="0.35" stroke-width="2"/>
    <rect x="520" y="220" width="240" height="240" rx="48" fill="#fff" fill-opacity="0.16"/>
    <g transform="translate(640 340)" text-anchor="middle" fill="none" stroke="#fff" stroke-width="1.75" stroke-linecap="round" stroke-linejoin="round" transform-origin="center">
      <g transform="translate(-96 -96) scale(8)">
        <path d="M11 5 6 9H2v6h4l5 4z"/><path d="M15.54 8.46a5 5 0 0 1 0 7.07"/><path d="M19.07 4.93a10 10 0 0 1 0 14.14"/>
      </g>
    </g>
  </g>
  <!-- Tag chip -->
  <rect x="502" y="520" width="276" height="52" rx="26" fill="#0f172a" fill-opacity="0.32" stroke="#fff" stroke-opacity="0.3"/>
  <text x="640" y="554" text-anchor="middle" font-family="Inter,Segoe UI,Arial,sans-serif" font-size="22" font-weight="700" fill="#fff">Accessibility</text>
  <text x="1220" y="670" text-anchor="end" font-family="Inter,Segoe UI,Arial,sans-serif" font-size="28" font-weight="800" fill="#fff" fill-opacity="0.85">Textly</text>
</svg>